<svg width="58" height="60" viewBox="0 0 58 60" fill="none" xmlns="http://www.w3.org/2000/svg">
<path d="M0.561049 29.6131C0.56132 29.5977 0.574281 29.5854 0.589705 29.5856C15.9621 29.8246 27.1145 15.021 22.6437 0.311072C22.6392 0.296309 22.6474 0.280456 22.6622 0.275943C22.6769 0.27143 22.6926 0.279962 22.6972 0.294712C27.2202 14.9886 44.7456 21.0205 57.354 12.2229C57.3667 12.2141 57.3843 12.217 57.3931 12.2297C57.402 12.2423 57.3987 12.2599 57.3861 12.2687C44.8091 21.1111 44.488 39.6427 56.7512 48.9154C56.7635 48.9247 56.7662 48.9424 56.7569 48.9547C56.7476 48.967 56.7299 48.9693 56.7176 48.9601C44.4215 39.731 26.6977 45.1523 21.6684 59.6807C21.6633 59.6952 21.6474 59.7032 21.6328 59.6982C21.6182 59.6932 21.6105 59.6771 21.6155 59.6625C26.5931 45.1163 15.9602 29.9352 0.588736 29.6416C0.573308 29.6413 0.560778 29.6285 0.561049 29.6131Z" fill="white"/>
</svg>
